<svg width="36" height="36" viewBox="0 0 36 36" fill="none" xmlns="http://www.w3.org/2000/svg">
<path d="M24.7002 11.7475L21.097 11.7476V10.8505C21.097 10.6018 20.8957 10.4004 20.647 10.4004C20.3984 10.4004 20.197 10.6018 20.197 10.8505V11.7473H16.597V10.8505C16.597 10.6018 16.3957 10.4004 16.147 10.4004C15.8984 10.4004 15.697 10.6018 15.697 10.8505V11.7473H12.1002C11.6032 11.7473 11.2002 12.1504 11.2002 12.6475V23.9002C11.2002 24.3973 11.6032 24.8004 12.1002 24.8004H24.7002C25.1972 24.8004 25.6002 24.3973 25.6002 23.9002V12.6475C25.6002 12.1506 25.1972 11.7475 24.7002 11.7475ZM24.7002 23.9002H12.1002V12.6475H15.697V13.101C15.697 13.3497 15.8984 13.5511 16.147 13.5511C16.3957 13.5511 16.597 13.3497 16.597 13.101V12.6478H20.197V13.1012C20.197 13.3499 20.3984 13.5514 20.647 13.5514C20.8957 13.5514 21.097 13.3499 21.097 13.1012V12.6478H24.7002V23.9002ZM21.5502 17.5989H22.4502C22.6986 17.5989 22.9002 17.3973 22.9002 17.1488V16.2486C22.9002 16.0001 22.6986 15.7985 22.4502 15.7985H21.5502C21.3018 15.7985 21.1002 16.0001 21.1002 16.2486V17.1488C21.1002 17.3973 21.3018 17.5989 21.5502 17.5989ZM21.5502 21.1995H22.4502C22.6986 21.1995 22.9002 20.9981 22.9002 20.7494V19.8492C22.9002 19.6008 22.6986 19.3991 22.4502 19.3991H21.5502C21.3018 19.3991 21.1002 19.6008 21.1002 19.8492V20.7494C21.1002 20.9983 21.3018 21.1995 21.5502 21.1995ZM18.8502 19.3991H17.9502C17.7018 19.3991 17.5002 19.6008 17.5002 19.8492V20.7494C17.5002 20.9981 17.7018 21.1995 17.9502 21.1995H18.8502C19.0986 21.1995 19.3002 20.9981 19.3002 20.7494V19.8492C19.3002 19.601 19.0986 19.3991 18.8502 19.3991ZM18.8502 15.7985H17.9502C17.7018 15.7985 17.5002 16.0001 17.5002 16.2486V17.1488C17.5002 17.3973 17.7018 17.5989 17.9502 17.5989H18.8502C19.0986 17.5989 19.3002 17.3973 19.3002 17.1488V16.2486C19.3002 15.9999 19.0986 15.7985 18.8502 15.7985ZM15.2502 15.7985H14.3502C14.1018 15.7985 13.9002 16.0001 13.9002 16.2486V17.1488C13.9002 17.3973 14.1018 17.5989 14.3502 17.5989H15.2502C15.4986 17.5989 15.7002 17.3973 15.7002 17.1488V16.2486C15.7002 15.9999 15.4986 15.7985 15.2502 15.7985ZM15.2502 19.3991H14.3502C14.1018 19.3991 13.9002 19.6008 13.9002 19.8492V20.7494C13.9002 20.9981 14.1018 21.1995 14.3502 21.1995H15.2502C15.4986 21.1995 15.7002 20.9981 15.7002 20.7494V19.8492C15.7002 19.601 15.4986 19.3991 15.2502 19.3991Z" fill="#A1A3AB"/>
</svg>
